<?xml version="1.0" encoding="UTF-8" standalone="no"?>
<svg xmlns="http://www.w3.org/2000/svg" width="115.000mm" height="145.000mm" viewBox="0 0 115.000 145.000">
  <!-- Import into KiCad: File -> Import -> Graphics; set layer Edge.Cuts -->
  <path d="M 72.657 135.182 L 76.619 133.701 L 79.788 130.325 L 85.989 129.360 L 92.397 126.122 L 98.356 120.438 L 102.904 113.066 L 106.073 103.214 L 106.762 93.292 L 105.453 85.025 L 101.526 73.794 L 101.112 68.076 L 102.697 64.149 L 104.729 62.392 L 107.623 61.083 L 109.242 59.395 L 110.000 57.259 L 109.656 54.641 L 108.243 52.608 L 106.383 51.506 L 104.178 51.230 L 102.111 51.781 L 96.531 55.157 L 93.740 58.223 L 91.811 61.668 L 90.502 66.422 L 90.433 72.485 L 91.673 78.479 L 95.600 90.054 L 96.014 93.430 L 95.738 99.975 L 94.291 105.832 L 91.329 111.895 L 87.436 116.407 L 83.095 118.957 L 83.061 113.686 L 81.407 107.485 L 71.142 87.574 L 62.736 69.109 L 68.627 67.008 L 73.863 64.045 L 77.687 60.635 L 80.719 56.363 L 83.130 50.300 L 84.094 44.031 L 83.543 37.968 L 81.683 32.318 L 76.860 24.601 L 70.866 18.745 L 64.872 8.066 L 61.737 5.069 L 60.359 5.207 L 57.603 7.136 L 50.576 14.921 L 38.450 14.921 L 31.284 6.998 L 28.529 5.138 L 27.151 5.138 L 23.120 9.582 L 18.159 18.745 L 13.612 22.948 L 9.547 28.253 L 6.654 34.040 L 5.207 39.621 L 5.000 44.995 L 5.620 49.129 L 7.274 54.158 L 9.754 58.637 L 12.889 62.185 L 16.403 64.872 L 20.399 67.008 L 25.118 68.696 L 17.746 87.092 L 6.860 109.690 L 5.896 114.375 L 5.758 119.060 L 7.274 126.501 L 8.858 129.808 L 11.442 132.943 L 13.853 134.528 L 16.403 135.217 L 72.657 135.182 Z" fill="none" stroke="#000000" stroke-width="0.20" stroke-linejoin="round" stroke-linecap="round"/>
</svg>
